<?xml version="1.0" standalone="no"?>
<!DOCTYPE svg PUBLIC "-//W3C//DTD SVG 20010904//EN"
 "http://www.w3.org/TR/2001/REC-SVG-20010904/DTD/svg10.dtd">
<svg version="1.0" xmlns="http://www.w3.org/2000/svg"
 width="539.000000pt" height="383.000000pt" viewBox="0 0 539.000000 383.000000"
 preserveAspectRatio="xMidYMid meet">

<g transform="translate(0.000000,383.000000) scale(0.100000,-0.100000)"
fill="#000000" stroke="none">
<path d="M1384 3516 c-35 -15 -84 -64 -84 -83 0 -18 -17 -16 -23 1 -11 27 -67
49 -114 43 -49 -5 -80 -28 -98 -72 -19 -43 -66 -57 -116 -32 -46 23 -91 12
-131 -31 -39 -42 -48 -66 -48 -131 0 -58 -1 -61 -25 -61 -35 0 -93 -55 -107
-102 -8 -29 -9 -50 -1 -79 8 -30 7 -41 -2 -47 -28 -16 -55 -78 -55 -125 0 -63
23 -111 66 -138 25 -15 34 -28 34 -48 0 -15 5 -32 12 -39 7 -7 11 -29 10 -50
-4 -51 33 -120 84 -155 31 -21 55 -29 99 -32 31 -2 62 -8 68 -14 6 -6 16 -11
23 -11 6 0 17 -20 23 -45 20 -80 75 -107 126 -62 l26 22 50 -47 c49 -48 49
-48 49 -113 0 -52 -4 -69 -20 -85 -23 -23 -18 -22 -167 -20 -172 2 -222 -28
-265 -163 -27 -84 -39 -337 -16 -337 12 0 16 -22 22 -107 12 -207 63 -379 123
-418 17 -11 54 -19 107 -22 l81 -6 -33 -34 c-78 -83 -164 -237 -214 -383 -26
-77 -88 -396 -88 -456 l0 -24 -392 -3 c-216 -1 822 -2 2307 -2 1485 0 2504 1
2264 2 l-437 3 -6 23 c-10 38 -7 237 4 237 6 0 10 5 10 11 0 6 20 32 45 57 41
42 54 68 69 142 4 17 65 78 188 185 283 249 306 272 318 316 10 35 5 62 -41
232 -74 276 -217 743 -244 796 -43 86 -115 141 -307 235 -97 47 -181 86 -187
86 -6 0 -11 13 -11 29 0 43 -45 77 -115 86 l-57 7 6 81 c8 123 15 157 33 150
21 -8 61 16 82 51 24 41 32 87 21 125 -7 25 -4 40 18 78 39 71 35 118 -23 232
-105 210 -232 282 -500 283 -243 2 -342 -59 -270 -166 19 -27 23 -42 16 -49
-30 -30 2 -99 65 -138 35 -21 36 -23 29 -68 -3 -25 -14 -52 -22 -58 -34 -26
-53 -68 -53 -116 0 -55 18 -97 55 -123 17 -14 28 -34 35 -71 11 -60 44 -117
100 -173 35 -35 40 -46 40 -85 0 -38 -3 -45 -19 -45 -22 0 -81 -46 -81 -64 0
-6 -68 -45 -152 -86 -163 -81 -200 -106 -224 -152 -10 -19 -28 -141 -50 -331
-18 -166 -36 -317 -39 -334 l-6 -33 -104 0 c-87 0 -116 4 -171 25 -37 14 -74
23 -83 20 -10 -3 -22 6 -32 24 l-17 29 47 7 c52 8 71 20 71 44 0 9 -47 95
-105 191 l-104 175 32 25 c109 85 168 202 121 241 -13 11 -19 10 -37 -1 -100
-63 -230 -112 -255 -96 -5 3 1 27 14 53 26 50 31 97 13 109 -7 4 -42 -26 -86
-72 -101 -107 -116 -127 -161 -219 -22 -44 -92 -176 -155 -294 -95 -176 -117
-210 -125 -195 -5 11 -7 25 -5 31 5 15 -62 141 -128 238 -91 135 -140 167
-317 206 -111 24 -115 28 -126 94 -6 36 -4 43 25 70 17 17 49 53 71 80 22 28
55 59 75 71 37 21 58 51 67 94 4 17 18 32 41 43 19 9 35 23 35 32 0 11 11 15
41 15 125 0 189 112 118 209 -17 24 -29 44 -27 46 2 1 18 10 36 19 68 35 91
120 50 186 -30 49 -31 108 -1 143 17 22 23 41 23 80 0 89 -67 160 -163 173
-41 6 -46 9 -51 39 -17 91 -144 152 -241 115 -27 -10 -28 -10 -82 59 -45 56
-107 74 -169 47z m137 -27 c14 -10 32 -31 38 -47 18 -43 43 -54 94 -40 98 26
208 -37 211 -122 1 -25 5 -30 26 -30 71 0 146 -43 175 -101 29 -55 14 -128
-32 -166 -10 -8 -12 -17 -5 -30 5 -10 6 -27 2 -38 -6 -14 -1 -27 17 -46 54
-58 33 -150 -42 -186 -39 -19 -44 -41 -16 -67 29 -26 44 -71 37 -109 -11 -58
-70 -97 -144 -97 -29 0 -39 -5 -47 -22 -6 -14 -22 -25 -40 -28 -27 -5 -31 -10
-36 -49 -4 -31 -14 -51 -33 -68 -39 -33 -47 -29 -40 20 5 30 18 52 45 79 61
60 65 148 9 212 -17 19 -34 53 -40 82 -5 27 -20 70 -32 97 -20 44 -24 47 -60
47 -30 0 -46 7 -69 30 l-30 30 -22 -25 c-12 -14 -44 -33 -71 -43 -38 -13 -57
-28 -81 -62 -17 -25 -44 -51 -58 -58 -41 -20 -60 -56 -53 -97 10 -54 -6 -75
-59 -75 -24 0 -56 5 -69 12 -22 9 -29 8 -46 -7 -54 -49 4 -204 77 -205 28 0
37 -15 23 -40 -14 -27 -62 -50 -89 -43 -27 7 -51 51 -51 93 0 23 -5 30 -19 30
-10 0 -24 7 -31 15 -8 10 -30 15 -62 15 -86 0 -141 36 -173 114 -10 24 -14 52
-11 71 5 22 2 36 -9 45 -8 7 -15 27 -15 45 0 26 -5 34 -24 39 -33 8 -67 58
-73 107 -7 47 19 122 49 143 17 12 18 18 9 53 -23 85 36 173 117 173 29 0 32
2 22 19 -28 54 6 168 59 195 42 22 94 20 116 -4 14 -15 21 -17 32 -8 7 6 27
11 43 10 26 -1 30 3 30 25 0 15 13 38 35 60 33 33 39 35 83 30 38 -4 53 -12
78 -41 l30 -35 22 45 c39 79 133 103 203 53z m2472 -63 c152 -29 243 -103 321
-260 53 -107 58 -155 26 -222 -22 -44 -33 -50 -131 -61 l-47 -5 2 75 c1 62 -2
79 -19 97 -19 21 -23 22 -200 15 -170 -7 -183 -6 -238 15 -64 24 -137 86 -137
116 0 11 7 29 15 41 13 18 13 22 -1 34 -25 20 -46 68 -39 90 9 26 46 50 103
65 64 17 254 17 345 0z m-218 -377 c35 -7 90 -6 180 2 72 7 143 9 157 6 34 -9
47 -52 40 -125 l-5 -52 -72 0 c-71 0 -73 1 -83 29 -24 68 -98 94 -139 49 -11
-13 -26 -33 -32 -45 -16 -31 -37 -29 -55 5 -18 34 -45 59 -71 64 -16 3 -19 10
-17 38 5 45 10 53 31 45 9 -4 39 -11 66 -16z m-40 -105 c34 -37 42 -103 19
-151 -35 -70 -89 -75 -131 -13 -69 100 33 249 112 164z m220 2 c63 -63 29
-208 -50 -208 -79 0 -112 139 -50 206 30 33 68 34 100 2z m-143 -116 c19 -113
108 -146 165 -61 13 19 23 49 23 67 l0 34 70 0 c60 0 70 -2 70 -18 0 -10 7
-28 16 -40 23 -34 54 -25 78 23 18 33 26 40 51 40 29 0 30 -2 33 -47 4 -55
-16 -100 -54 -125 -26 -16 -27 -16 -44 4 -17 22 -17 21 -23 -35 -5 -51 -10
-61 -48 -93 -51 -45 -181 -122 -232 -139 -35 -11 -41 -10 -77 14 -50 33 -127
130 -140 176 -17 61 -13 83 20 102 34 19 60 71 60 119 0 46 23 31 32 -21z
m418 35 c0 -12 -31 -65 -38 -65 -22 1 -48 43 -36 61 6 10 74 13 74 4z m-2698
-72 c10 -9 39 -21 65 -28 45 -11 49 -15 70 -66 12 -30 23 -68 23 -85 0 -27 -4
-32 -29 -37 -21 -5 -37 -18 -53 -47 -13 -22 -30 -40 -38 -40 -8 0 -24 17 -35
37 -39 72 -115 70 -150 -4 l-20 -42 -65 -1 -65 0 5 66 c5 63 6 67 45 93 22 15
52 45 67 68 21 31 38 43 72 53 25 7 53 21 62 31 21 23 23 23 46 2z m2659 -359
c6 -7 25 -10 47 -7 48 6 89 -10 103 -41 9 -18 7 -43 -8 -107 l-19 -84 -119 -6
c-87 -4 -134 -11 -172 -26 -29 -12 -51 -17 -48 -13 3 4 62 54 132 111 169 135
159 125 143 143 -7 9 -17 16 -22 16 -6 0 -4 -7 3 -16 11 -14 10 -19 -11 -37
-34 -27 -272 -218 -286 -229 -8 -6 -27 17 -58 71 -25 44 -50 83 -56 86 -7 4
-5 14 5 28 8 12 15 43 15 71 0 39 3 47 12 38 7 -7 21 -12 33 -12 30 0 150 60
225 114 l65 46 3 -67 c2 -37 7 -73 13 -79z m-2682 112 c69 -73 21 -231 -63
-210 -37 9 -66 58 -66 112 0 100 74 156 129 98z m224 -5 c48 -58 41 -153 -15
-194 -24 -18 -30 -18 -58 -7 -38 16 -60 56 -60 110 0 102 79 155 133 91z
m-614 -77 c27 -14 39 -14 74 -5 23 7 71 11 107 9 l65 -3 6 -44 c6 -49 53 -101
90 -101 48 0 99 70 99 136 0 44 25 21 32 -30 7 -50 35 -91 71 -102 16 -5 18
-12 12 -52 -4 -26 -18 -66 -31 -89 -31 -54 -120 -142 -152 -150 -49 -12 -298
138 -314 190 -3 12 -9 39 -13 61 -6 34 -8 36 -19 21 -10 -14 -17 -15 -34 -6
-52 28 -85 109 -63 157 12 28 26 30 70 8z m2701 -124 c0 -5 -7 -13 -15 -17
-13 -8 -11 -15 13 -48 42 -58 85 -135 75 -135 -4 1 -19 7 -33 15 -14 8 -49 14
-77 15 l-53 0 0 61 c0 54 3 64 29 90 29 28 61 39 61 19z m739 -110 c197 -97
253 -141 298 -231 49 -99 283 -916 283 -987 0 -20 -8 -49 -18 -64 -19 -30
-350 -323 -364 -323 -12 0 -197 138 -198 147 0 14 100 175 174 277 42 58 73
107 70 110 -5 5 -12 -3 -34 -39 -6 -10 -12 -12 -18 -5 -5 6 -51 100 -102 210
-106 230 -151 317 -158 310 -3 -2 8 -29 23 -58 l29 -54 -27 -99 c-38 -142 -55
-264 -63 -437 l-6 -152 31 -60 31 -60 -43 -69 c-39 -65 -47 -72 -102 -93 -148
-58 -342 -93 -510 -93 -149 0 -151 2 -162 97 -11 105 -8 289 6 393 7 47 34
171 61 275 48 186 97 431 140 709 12 77 26 150 30 161 15 40 136 77 275 84
l120 6 15 68 c8 37 19 67 25 67 6 0 93 -40 194 -90z m-841 -17 l-3 -58 47 3
c35 3 62 -3 101 -21 l54 -25 -42 -253 c-55 -327 -76 -432 -136 -665 -62 -245
-78 -403 -61 -590 7 -70 10 -129 8 -132 -22 -22 -26 37 -26 425 0 503 12 463
-143 463 l-99 0 5 198 c4 206 17 280 66 396 11 25 16 46 12 46 -9 0 -47 -99
-72 -185 -6 -22 -14 -132 -18 -245 l-6 -205 -67 -3 c-66 -3 -68 -2 -68 21 0
55 71 634 81 658 18 45 59 74 214 152 83 42 152 76 153 76 2 1 2 -25 0 -56z
m-1078 -41 c0 -10 -11 -41 -25 -68 -14 -27 -23 -55 -20 -61 12 -34 136 0 240
65 39 24 52 28 63 19 12 -9 10 -12 -9 -18 -31 -8 -135 -79 -117 -79 7 0 35 16
62 35 55 39 66 42 66 20 0 -8 -7 -15 -16 -15 -9 0 -44 -19 -78 -41 -33 -23
-50 -38 -36 -34 14 4 42 20 62 36 20 16 42 29 48 29 20 0 6 -35 -15 -39 -11
-2 -40 -18 -65 -36 -66 -47 -87 -52 -101 -21 -7 14 -19 28 -27 31 -9 3 -62 -2
-119 -11 -57 -9 -106 -14 -109 -11 -4 3 4 21 16 39 27 39 161 178 172 178 5 0
8 -8 8 -18z m-1295 -97 c79 -45 132 -62 159 -52 10 4 16 -6 20 -36 4 -23 18
-58 32 -78 14 -21 27 -57 31 -87 5 -45 3 -53 -20 -76 -23 -23 -35 -26 -89 -26
-104 1 -184 47 -264 153 l-45 61 43 20 43 21 3 73 c2 39 4 72 6 72 1 0 38 -20
81 -45z m1499 -107 c-11 -11 -38 -33 -61 -49 -40 -28 -43 -29 -52 -10 -9 16
-6 21 20 31 16 7 46 26 67 42 39 31 57 22 26 -14z m-35 -214 c77 -130 141
-242 141 -249 0 -15 -14 -20 -78 -30 -40 -6 -45 -5 -81 33 -51 52 -59 77 -33
105 12 12 26 35 32 52 9 24 8 31 -4 41 -9 6 -16 18 -16 27 0 9 -5 19 -10 22
-15 9 -98 -41 -137 -82 -30 -31 -32 -32 -38 -12 -5 16 2 30 30 59 27 28 36 44
33 64 l-3 26 -59 -36 c-32 -19 -62 -31 -67 -27 -23 25 -107 178 -102 188 2 8
36 19 76 25 40 7 90 16 112 20 22 4 45 8 51 9 6 1 75 -105 153 -235z m-1629
144 c42 -63 132 -145 184 -169 91 -40 188 -34 221 14 17 24 19 77 6 125 -12
40 -7 41 123 8 114 -30 166 -63 228 -147 55 -76 148 -239 148 -259 0 -9 -22
-37 -48 -63 -48 -48 -49 -48 -108 -45 l-58 3 -1 85 c-1 82 -21 207 -32 196 -3
-2 0 -28 6 -56 6 -28 11 -91 11 -140 l0 -90 -55 0 c-83 0 -95 -17 -95 -130 l0
-90 -280 0 -280 0 -9 23 c-11 29 -30 374 -25 457 2 45 1 57 -5 40 -5 -14 -9
-67 -10 -119 -1 -84 -3 -93 -18 -86 -87 33 -235 44 -287 20 -19 -8 -19 -4 -13
116 7 131 21 198 55 265 39 76 86 95 219 91 l93 -3 30 -46z m1284 -88 c33 -58
44 -85 37 -94 -6 -7 -7 -26 -1 -50 7 -31 2 -56 -30 -150 -57 -172 -36 -156
-205 -156 -80 0 -145 3 -145 7 0 16 283 533 289 528 5 -2 29 -41 55 -85z m137
-83 l-42 -39 17 -44 c9 -24 19 -44 21 -44 2 0 11 16 19 35 10 24 32 47 69 70
30 19 59 35 65 35 22 0 8 -26 -40 -70 -39 -36 -50 -53 -49 -76 1 -29 1 -29 11
6 10 36 32 59 81 86 25 14 27 13 27 -5 0 -11 -14 -36 -31 -55 -30 -35 -30 -35
-13 -71 9 -19 30 -45 46 -57 32 -22 88 -102 88 -125 0 -10 -23 -13 -90 -13
l-90 0 -46 42 c-57 52 -86 103 -113 194 -31 106 -30 109 42 154 74 47 89 35
28 -23z m-30 -264 c7 -10 31 -37 53 -60 l40 -43 -110 0 c-61 0 -113 2 -116 5
-2 3 13 57 35 121 l40 116 22 -61 c12 -33 28 -69 36 -78z m2082 -174 c48 -102
87 -191 87 -197 0 -7 -26 -49 -59 -94 -32 -46 -80 -120 -106 -165 -25 -46 -51
-85 -55 -88 -5 -3 -18 12 -30 34 -37 73 -25 379 21 566 29 115 40 148 48 138
4 -4 47 -92 94 -194z m-3653 175 c108 -25 106 -23 115 -171 4 -70 11 -136 16
-145 9 -16 29 -18 197 -18 103 0 231 -3 285 -7 l97 -6 0 -73 c0 -71 -1 -73
-27 -78 -87 -18 -363 -39 -523 -40 -219 -1 -234 3 -274 86 -32 67 -52 154 -65
292 -15 149 -14 164 7 169 37 10 110 6 172 -9z m1108 -79 c-2 -16 -12 -21 -45
-23 -24 -2 -43 0 -43 4 0 5 15 23 32 41 30 32 34 33 46 16 7 -10 11 -27 10
-38z m833 -23 c-48 -4 -56 0 -48 22 5 13 11 13 49 -2 l43 -17 -44 -3z m689
-32 c11 -11 20 -33 20 -50 l0 -30 -965 0 -965 0 0 30 c0 17 9 39 20 50 20 20
33 20 945 20 912 0 925 0 945 -20z m20 -640 l0 -550 -965 0 -965 0 0 550 0
550 965 0 965 0 0 -550z m-1947 253 c-7 -2 -21 -2 -30 0 -10 3 -4 5 12 5 17 0
24 -2 18 -5z m7 -33 c0 -19 -6 -20 -192 -19 -106 1 -236 5 -288 9 l-95 7 80 3
c44 1 114 6 155 10 41 4 135 7 208 8 126 2 132 1 132 -18z m-152 -36 l152 -6
0 -364 c0 -362 0 -364 -21 -364 -20 0 -20 2 -13 160 5 117 4 160 -5 160 -7 0
-11 -30 -11 -92 0 -51 -3 -123 -7 -160 l-6 -68 -48 0 c-38 0 -49 -4 -49 -16 0
-26 31 -84 54 -99 18 -13 -27 -15 -397 -15 -229 0 -417 3 -417 8 1 51 56 356
76 421 46 150 121 296 209 406 l32 40 149 -2 c82 -2 218 -6 302 -9z m3182
-265 c0 -4 -23 -28 -51 -53 l-51 -46 -75 61 c-41 34 -76 59 -79 56 -3 -2 29
-31 70 -63 62 -49 75 -64 76 -88 0 -43 -35 -109 -81 -150 l-39 -36 -90 45
c-50 25 -90 47 -90 50 0 3 172 297 207 353 l14 22 94 -72 c52 -40 95 -75 95
-79z m-364 -116 c-29 -50 -41 -60 -78 -71 -108 -32 -233 -53 -355 -59 l-133
-6 0 40 0 41 108 7 c136 9 284 37 392 74 47 16 88 30 92 30 4 1 -8 -25 -26
-56z m-615 -43 l39 0 0 -45 0 -46 -62 7 c-35 4 -66 9 -70 11 -5 2 -8 22 -8 45
0 40 0 40 31 34 17 -3 49 -6 70 -6z m559 -49 c0 -6 -5 -13 -12 -17 -7 -4 30
-27 90 -55 l102 -48 0 -135 0 -136 -376 0 -377 0 27 25 c26 24 46 63 46 91 0
11 -17 14 -80 14 l-80 0 0 110 0 110 43 -7 c87 -16 326 -8 444 16 62 12 123
26 135 31 30 12 38 12 38 1z m-1840 -301 c19 -19 33 -20 205 -20 172 0 186 1
205 20 19 19 33 20 465 20 304 0 445 -3 445 -10 0 -27 -32 -69 -64 -84 -31
-14 -130 -16 -1050 -16 -1099 0 -1063 -2 -1099 53 -39 60 -59 57 428 57 432 0
446 -1 465 -20z m405 10 c-8 -13 -392 -13 -400 0 -4 7 65 10 200 10 135 0 204
-3 200 -10z"/>
<path d="M3740 2649 c0 -10 55 -16 90 -11 50 7 33 17 -30 17 -33 0 -60 -3 -60
-6z"/>
<path d="M1537 2238 c21 -7 40 -7 60 0 25 9 21 10 -32 10 -55 0 -57 -1 -28
-10z"/>
<path d="M3963 2065 c2 -5 10 -10 17 -10 7 0 15 5 17 10 2 6 -6 11 -17 11 -11
0 -19 -5 -17 -11z"/>
<path d="M3926 1778 c3 -4 12 -8 20 -8 8 0 14 4 14 8 0 4 -9 8 -19 8 -11 0
-17 -4 -15 -8z"/>
<path d="M4137 1669 c15 -15 53 -19 53 -6 0 7 4 6 11 -3 8 -11 10 -12 7 -1 -2
8 -20 15 -42 17 -23 1 -35 -1 -29 -7z"/>
<path d="M4230 1655 c0 -9 5 -15 11 -13 6 2 11 8 11 13 0 5 -5 11 -11 13 -6 2
-11 -4 -11 -13z"/>
<path d="M4263 1656 c0 -10 9 -15 24 -14 21 2 34 18 14 18 -5 0 -16 2 -24 5
-8 4 -14 0 -14 -9z"/>
<path d="M3974 1642 c22 -25 72 -29 101 -9 14 11 15 16 5 22 -9 5 -11 4 -6 -3
4 -7 1 -13 -6 -14 -47 -5 -66 -3 -88 10 l-25 15 19 -21z"/>
<path d="M4112 1645 c4 -4 4 -13 -2 -20 -11 -13 40 -12 62 1 10 6 10 4 -1 -9
-17 -21 2 -23 22 -2 10 9 17 11 20 5 3 -6 4 -5 3 2 -1 7 -19 13 -42 13 -21 0
-46 5 -54 9 -8 5 -12 6 -8 1z"/>
<path d="M3860 1502 c0 -19 30 -27 43 -12 9 10 9 12 -4 7 -9 -3 -22 0 -28 6
-8 8 -11 8 -11 -1z"/>
<path d="M3796 1219 c3 -5 11 -9 19 -9 8 0 16 4 19 9 3 5 -5 9 -19 9 -14 0
-22 -4 -19 -9z"/>
<path d="M3766 929 c3 -5 11 -9 19 -9 8 0 16 4 19 9 3 5 -5 9 -19 9 -14 0 -22
-4 -19 -9z"/>
<path d="M3756 629 c6 -11 31 -12 37 -1 3 4 -6 8 -19 8 -13 1 -21 -2 -18 -7z"/>
<path d="M2484 1906 c-4 -11 -1 -21 7 -27 17 -11 26 18 10 34 -7 7 -12 5 -17
-7z"/>
<path d="M2690 1899 c0 -8 7 -23 15 -33 11 -14 15 -16 15 -5 0 8 -7 23 -15 33
-11 14 -15 16 -15 5z"/>
<path d="M2730 1834 c0 -5 7 -19 15 -30 8 -10 15 -14 15 -8 0 5 -7 19 -15 30
-8 10 -15 14 -15 8z"/>
<path d="M2675 1301 c-7 -12 12 -24 25 -16 11 7 4 25 -10 25 -5 0 -11 -4 -15
-9z"/>
<path d="M2615 931 c-141 -36 -229 -147 -229 -286 1 -262 311 -388 497 -202
112 112 110 294 -6 410 -21 21 -58 47 -81 58 -49 21 -138 31 -181 20z m183
-37 c99 -49 152 -135 152 -249 0 -153 -100 -262 -249 -273 -165 -11 -287 90
-299 247 -7 104 28 190 103 246 80 62 203 74 293 29z"/>
<path d="M2670 768 c0 -11 -8 -18 -20 -18 -11 0 -27 -11 -36 -25 -26 -39 -8
-64 61 -89 41 -14 61 -27 63 -40 8 -42 -71 -62 -117 -29 -18 12 -23 13 -19 2
2 -8 19 -18 36 -24 22 -6 32 -16 33 -30 0 -19 1 -19 9 3 5 12 16 22 23 22 22
0 49 36 45 62 -2 18 -15 27 -63 44 -63 22 -81 48 -55 80 15 17 81 19 98 2 9
-9 12 -9 12 0 0 6 -11 14 -25 18 -14 3 -30 14 -35 23 -9 15 -9 14 -10 -1z"/>
<path d="M3084 3236 c-142 -45 -234 -198 -204 -340 20 -99 82 -171 186 -217
40 -19 70 -23 169 -24 66 -1 127 -5 137 -9 13 -6 18 2 27 45 6 28 22 64 35 80
14 16 34 55 46 86 72 190 -81 395 -293 392 -34 0 -81 -6 -103 -13z m188 -6
c57 -16 130 -70 165 -123 66 -99 65 -223 -2 -311 -32 -43 -37 -53 -50 -110 -6
-27 -7 -28 -53 -21 -26 4 -85 7 -132 6 -75 -1 -92 2 -145 27 -104 50 -156 126
-163 240 -4 66 -2 78 27 137 37 74 89 120 165 147 58 20 133 23 188 8z"/>
<path d="M3168 2950 c-18 -54 -22 -80 -14 -80 6 0 24 36 38 80 18 54 22 80 14
80 -6 0 -24 -36 -38 -80z"/>
<path d="M3230 2995 c0 -7 16 -19 35 -25 19 -6 35 -15 35 -20 0 -5 -16 -14
-35 -20 -19 -6 -35 -18 -35 -25 0 -10 12 -9 50 8 28 12 50 29 50 37 0 8 -22
25 -50 37 -38 17 -50 18 -50 8z"/>
<path d="M3068 2979 c-21 -11 -38 -24 -38 -29 0 -10 72 -50 90 -50 23 0 8 19
-25 30 -19 6 -35 15 -35 19 0 4 16 13 35 20 19 7 35 17 35 22 0 14 -21 10 -62
-12z"/>
<path d="M2364 2899 c-67 -26 -123 -75 -159 -140 -26 -47 -29 -64 -30 -134 0
-67 4 -88 27 -131 14 -27 33 -56 42 -63 8 -7 20 -37 26 -68 10 -45 15 -53 28
-47 10 4 72 8 139 9 115 1 125 3 187 34 134 66 197 195 162 332 -26 100 -99
180 -196 214 -59 21 -164 18 -226 -6z m248 -16 c55 -25 117 -84 143 -138 29
-59 32 -171 7 -227 -29 -66 -80 -118 -147 -150 -54 -25 -70 -28 -155 -27 -52
1 -111 -2 -131 -6 l-37 -7 -12 51 c-6 27 -18 56 -27 62 -23 20 -59 99 -67 146
-13 89 34 201 109 259 86 65 217 80 317 37z"/>
<path d="M2460 2692 c0 -15 43 -137 51 -146 20 -22 17 5 -7 77 -14 42 -30 77
-35 77 -5 0 -9 -4 -9 -8z"/>
<path d="M2540 2666 c0 -6 16 -18 35 -25 19 -7 35 -16 35 -21 0 -5 -16 -14
-35 -21 -19 -7 -35 -19 -35 -25 0 -9 16 -6 53 10 28 13 52 29 52 36 0 7 -24
23 -52 36 -37 16 -53 19 -53 10z"/>
<path d="M2383 2650 c-24 -10 -43 -24 -43 -30 0 -14 87 -53 103 -47 7 3 -7 13
-30 23 -48 21 -53 29 -20 37 12 4 31 13 42 21 29 22 0 20 -52 -4z"/>
</g>
</svg>
